<svg width="1080" height="1080" viewBox="0 0 1080 1080" fill="none" xmlns="http://www.w3.org/2000/svg">
<line x1="54.5001" y1="2.18557e-08" x2="54.5" y2="1080" stroke="#282828"/>
<line x1="540.5" y1="2.18557e-08" x2="540.5" y2="1080" stroke="#282828"/>
<line x1="108.5" y1="2.18557e-08" x2="108.5" y2="1080" stroke="#282828"/>
<line x1="594.5" y1="2.18557e-08" x2="594.5" y2="1080" stroke="#282828"/>
<line x1="162.5" y1="2.18557e-08" x2="162.5" y2="1080" stroke="#282828"/>
<line x1="648.5" y1="2.18557e-08" x2="648.5" y2="1080" stroke="#282828"/>
<line x1="216.5" y1="2.18557e-08" x2="216.5" y2="1080" stroke="#282828"/>
<line x1="702.5" y1="2.18557e-08" x2="702.5" y2="1080" stroke="#282828"/>
<line x1="270.5" y1="2.18557e-08" x2="270.5" y2="1080" stroke="#282828"/>
<line x1="756.5" y1="2.18557e-08" x2="756.5" y2="1080" stroke="#282828"/>
<line x1="324.5" y1="2.18557e-08" x2="324.5" y2="1080" stroke="#282828"/>
<line x1="810.5" y1="2.18557e-08" x2="810.5" y2="1080" stroke="#282828"/>
<line x1="378.5" y1="2.18557e-08" x2="378.5" y2="1080" stroke="#282828"/>
<line x1="864.5" y1="2.18557e-08" x2="864.5" y2="1080" stroke="#282828"/>
<line x1="432.5" y1="2.18557e-08" x2="432.5" y2="1080" stroke="#282828"/>
<line x1="918.5" y1="2.18557e-08" x2="918.5" y2="1080" stroke="#282828"/>
<line x1="486.5" y1="2.18557e-08" x2="486.5" y2="1080" stroke="#282828"/>
<line x1="972.5" y1="2.18557e-08" x2="972.5" y2="1080" stroke="#282828"/>
<line x1="1026.5" y1="2.18557e-08" x2="1026.5" y2="1080" stroke="#282828"/>
<line x1="1080" y1="54.5001" x2="-4.37115e-08" y2="54.5" stroke="#282828"/>
<line x1="1080" y1="540.5" x2="-4.37115e-08" y2="540.5" stroke="#282828"/>
<line x1="1080" y1="108.5" x2="-4.37115e-08" y2="108.5" stroke="#282828"/>
<line x1="1080" y1="594.5" x2="-4.37115e-08" y2="594.5" stroke="#282828"/>
<line x1="1080" y1="162.5" x2="-4.37115e-08" y2="162.5" stroke="#282828"/>
<line x1="1080" y1="648.5" x2="-4.37115e-08" y2="648.5" stroke="#282828"/>
<line x1="1080" y1="216.5" x2="-4.37115e-08" y2="216.5" stroke="#282828"/>
<line x1="1080" y1="702.5" x2="-4.37115e-08" y2="702.5" stroke="#282828"/>
<line x1="1080" y1="270.5" x2="-4.37115e-08" y2="270.5" stroke="#282828"/>
<line x1="1080" y1="756.5" x2="-6.10789e-05" y2="756.5" stroke="#282828"/>
<line x1="1080" y1="324.5" x2="-4.37115e-08" y2="324.5" stroke="#282828"/>
<line x1="1080" y1="810.5" x2="-6.10789e-05" y2="810.5" stroke="#282828"/>
<line x1="1080" y1="378.5" x2="-4.37115e-08" y2="378.5" stroke="#282828"/>
<line x1="1080" y1="864.5" x2="-6.10789e-05" y2="864.5" stroke="#282828"/>
<line x1="1080" y1="432.5" x2="-4.37115e-08" y2="432.5" stroke="#282828"/>
<line x1="1080" y1="918.5" x2="-6.10789e-05" y2="918.5" stroke="#282828"/>
<line x1="1080" y1="486.5" x2="-4.37115e-08" y2="486.5" stroke="#282828"/>
<line x1="1080" y1="972.5" x2="-6.10789e-05" y2="972.5" stroke="#282828"/>
<line x1="1080" y1="1026.5" x2="-6.10789e-05" y2="1026.5" stroke="#282828"/>
</svg>
